# AST/ASF file generated using VICON BodyLanguage
# -----------------------------------------------
:version 1.10
:name VICON
:units
  mass 1.0
  length 0.45
  angle deg
:documentation
   .ast/.asf automatically generated from VICON data using
   VICON BodyBuilder and BodyLanguage model FoxedUp or BRILLIANT.MOD
:root
   order TX TY TZ RX RY RZ
   axis XYZ
   position 0 0 0  
   orientation 0 0 0 
:bonedata
  begin
     id 1 
     name lhipjoint
     direction 0.711131 -0.61297 0.344326 
     length 2.29162 
     axis 0 0 0  XYZ
  end
  begin
     id 2 
     name lfemur
     direction 0.34202 -0.939693 0  
     length 6.71424  
     axis 0 0 20  XYZ
    dof rx ry rz
    limits (-160.0 20.0)
           (-70.0 70.0)
           (-60.0 70.0)
  end
  begin
     id 3 
     name ltibia
     direction 0.34202 -0.939693 0   
     length 6.7087   
     axis 0 0 20   XYZ
    dof rx
    limits (-10.0 170.0)
  end
  begin
     id 4 
     name lfoot
     direction 0.0230374 -0.0632947 0.997729   
     length 1.56743   
     axis -90 7.62852e-016 20   XYZ
    dof rx rz
    limits (-45.0 90.0)
           (-70.0 20.0)
  end
  begin
     id 5 
     name ltoes
     direction 1.53585e-011 -4.21885e-011 1   
     length 0.802914   
     axis -90 7.62852e-016 20   XYZ
    dof rx
    limits (-90.0 20.0)
  end
  begin
     id 6 
     name rhipjoint
     direction -0.733192 -0.592884 0.333043   
     length 2.36925  
     axis 0 0 0  XYZ 
  end
  begin
     id 7 
     name rfemur
     direction -0.34202 -0.939693 0   
     length 6.67027   
     axis 0 0 -20   XYZ
    dof rx ry rz
    limits (-160.0 20.0)
           (-70.0 70.0)
           (-70.0 60.0)
  end
  begin
     id 8 
     name rtibia
     direction -0.34202 -0.939693 0   
     length 6.6862   
     axis 0 0 -20   XYZ
    dof rx
    limits (-10.0 170.0)
 end
 begin
     id 9 
     name rfoot
     direction -0.0949739 -0.260939 0.960672   
     length 1.67698  
     axis -90 -7.62852e-016 -20   XYZ
    dof rx rz
    limits (-45.0 90.0)
           (-20.0 70.0)
  end
  begin
     id 10 
     name rtoes
     direction -1.5353e-011 -4.21868e-011 1   
     length 0.846298   
     axis -90 -7.62852e-016 -20   XYZ
    dof rx
    limits (-90.0 20.0)
  end
  begin
     id 11 
     name lowerback
     direction -0.0206828 0.999785 -0.00109866   
     length 2.04382   
     axis 0 0 0   XYZ
    dof rx ry rz
    limits (-20.0 45.0)
           (-30.0 30.0)
           (-30.0 30.0)
  end
  begin
     id 12 
     name upperback
     direction -0.0105003 0.999727 -0.0208904   
     length 2.04538   
     axis 0 0 0   XYZ
    dof rx ry rz
    limits (-20.0 45.0)
           (-30.0 30.0)
           (-30.0 30.0)
  end
  begin
     id 13 
     name thorax
     direction -0.000416255 0.999808 -0.0196023   
     length 2.0399   
     axis 0 0 0   XYZ
    dof rx ry rz
    limits (-20.0 45.0)
           (-30.0 30.0)
           (-30.0 30.0)
  end
  begin
     id 14 
     name lowerneck
     direction 0.0627861 0.989205 0.13241   
     length 1.46207   
     axis 0 0 0   XYZ
    dof rx ry rz
    limits (-20.0 45.0)
           (-30.0 30.0)
           (-30.0 30.0)
  end
  begin
     id 15 
     name upperneck
     direction 0.00627179 0.994526 0.104303   
     length 1.41419   
     axis 0 0 0   XYZ
    dof rx ry rz
    limits (-20.0 45.0)
           (-30.0 30.0)
           (-30.0 30.0)
  end
  begin
     id 16
     name head
     direction -0.00443838 0.999688 0.0245968  
     length 1.50718  
     axis 0 0 0   XYZ
    dof rx ry rz
    limits (-20.0 45.0)
           (-30.0 30.0)
           (-30.0 30.0)
  end
  begin
     id 17 
     name lclavicle
     direction 0.758742 0.650995 -0.0227258  
     length 2.86888  
     axis 0 0 0   XYZ
    dof ry rz
    limits (-20.0 10.0)
           (0.0 20.0)
  end
  begin
     id 18 
     name lhumerus
     direction 1 -4.48962e-011 1.06664e-027   
     length 4.65776   
     axis -180 -30 -90   XYZ
    dof rx ry rz
    limits (-60.0 90.0)
           (-90.0 90.0)
           (-90.0 90.0)
  end
  begin
     id 19
     name lradius
     direction 1 -4.48968e-011 1.40404e-026   
     length 3.55539   
     axis -180 -30 -90   XYZ
    dof rx
    limits (-10.0 170.0)
  end
  begin
     id 20
     name lwrist
     direction 1 -4.48976e-011 3.32647e-026   
     length 1.77769   
     axis -2.20186e-014 90 90   XYZ
    dof ry
    limits (-180.0 0.0)
 end
  begin
     id 21 
     name lhand
     direction 1 -4.48982e-011 6.65293e-026   
     length 0.707264   
     axis -4.24514e-014 90 90   XYZ
    dof rx rz
    limits (-90.0 90.0)
           (-45.0 45.0)
  end
  begin
     id 22 
     name lfingers
     direction 1 -4.48966e-011 1.33059e-025   
     length 0.570215   
     axis -8.49028e-014 90 90   XYZ
    dof rx
    limits (0.0 90.0)
  end
  begin
     id 23
     name lthumb
     direction 0.707107 -6.3493e-011 0.707107   
     length 0.818718   
     axis -90 45 2.85299e-015   XYZ
    dof rx rz
    limits (-45.0 45.0)
           (-45.0 45.0)
  end
  begin
     id 24 
     name rclavicle
     direction -0.870343 0.482028 -0.100759   
     length 3.2251  
     axis 0 0 0   XYZ 
    dof ry rz
    limits (-10.0 20.0)
           (-20.0 0.0)
  end
  begin
     id 25 
     name rhumerus
     direction -1 -4.48974e-011 -9.45849e-028  
     length 4.71925   
     axis -180 30 90   XYZ
    dof rx ry rz
    limits (-90.0 60.0)
           (-90.0 90.0)
           (-90.0 90.0)
  end
  begin
     id 26 
     name rradius
     direction -1 -4.48965e-011 1.17607e-026   
     length 3.5699   
     axis -180 30 90   XYZ
    dof rx
    limits (-10.0 170.0)
  end
  begin
     id 27 
     name rwrist
     direction -1 -4.48968e-011 3.32647e-026   
     length 1.78495   
     axis -2.20186e-014 -90 -90   XYZ
    dof ry
    limits (-180.0 0.0)
  end
  begin
     id 28
     name rhand
     direction -1 -4.48995e-011 6.65293e-026   
     length 0.507757   
     axis -4.24514e-014 -90 -90   XYZ
    dof rx rz
    limits (-90.0 90.0)
           (-45.0 45.0)
  end
  begin
     id 29
     name rfingers
     direction -1 -4.48864e-011 1.33059e-025   
     length 0.409367   
     axis -8.49028e-014 -90 -90   XYZ
    dof rx
    limits (0.0 90.0)
  end
  begin
     id 30
     name rthumb
     direction -0.707107 -6.3494e-011 0.707107   
     length 0.587771   
     axis -90 -45 -2.85299e-015   XYZ
    dof rx rz
    limits (-45.0 45.0)
           (-45.0 45.0)
  end
:hierarchy
  begin
    root lhipjoint rhipjoint lowerback
    lhipjoint lfemur
    lfemur ltibia
    ltibia lfoot
    lfoot ltoes
    rhipjoint rfemur
    rfemur rtibia
    rtibia rfoot
    rfoot rtoes
    lowerback upperback
    upperback thorax
    thorax lowerneck lclavicle rclavicle
    lowerneck upperneck
    upperneck head
    lclavicle lhumerus
    lhumerus lradius
    lradius lwrist
    lwrist lhand lthumb
    lhand lfingers
    rclavicle rhumerus
    rhumerus rradius
    rradius rwrist
    rwrist rhand rthumb
    rhand rfingers
  end

#!OML:ASF E:\Steps\Project 1\Capture day 1\Session 2\Subject.ASF
:FULLY-SPECIFIED
:DEGREES
1
root -1.17595 17.9952 21.0325 -155.335 -0.942327 175.413
lowerback -22.2716 -3.9958 -10.6047
upperback 1.12058 -2.59815 -0.731375
thorax 14.3542 -2.04182 4.29003
lowerneck -0.885806 -7.74326 -3.14576
upperneck 16.7643 -9.96318 3.19885
head 5.52666 -4.52798 1.02128
rclavicle 2.26615e-014 1.82882e-014
rhumerus -35.0422 -14.096 -80.1123
rradius 40.2931
rwrist 12.933
rhand -6.91826 -57.706
rfingers 7.12502
rthumb 18.9494 -86.8029
lclavicle 2.26615e-014 1.82882e-014
lhumerus -24.7582 5.44206 80.7344
lradius 28.3847
lwrist 13.8457
lhand -22.3772 -13.241
lfingers 7.12502
lthumb 4.04452 16.7004
rfemur -22.3076 4.41345 16.1103
rtibia 6.18417
rfoot -17.8939 -5.08297
rtoes -24.0773
lfemur -21.9548 -7.71015 -26.9086
ltibia 7.22256
lfoot -7.23501 -0.156826
ltoes -25.7996
2
root -1.18092 17.9918 21.0367 -154.773 -1.19648 175.895
lowerback -22.8629 -3.89287 -9.92651
upperback 0.91415 -2.60223 -0.685397
thorax 14.4098 -1.99403 3.9441
lowerneck -0.726029 -7.79254 -2.90327
upperneck 16.8215 -10.0167 3.10454
head 5.50189 -4.53901 0.957773
rclavicle 1.07344e-014 7.95139e-016
rhumerus -35.4928 -14.5283 -79.847
rradius 40.8533
rwrist 14.8904
rhand -1.51725 -55.9696
rfingers 7.12502
rthumb 24.1363 -84.4712
lclavicle 1.07344e-014 7.95139e-016
lhumerus -25.1144 4.41403 81.2171
lradius 27.8534
lwrist 9.8742
lhand -28.416 -13.1662
lfingers 7.12502
lthumb -1.78773 16.8061
rfemur -23.0418 4.01342 16.7822
rtibia 6.40817
rfoot -17.7747 -4.76429
rtoes -24.0779
lfemur -22.6656 -7.77402 -26.2309
ltibia 7.29788
lfoot -7.19037 -0.129401
ltoes -23.5854
3
root -1.18615 17.9881 21.0401 -154.2 -1.43817 176.366
lowerback -23.4705 -3.77643 -9.2611
upperback 0.70398 -2.59447 -0.641369
thorax 14.4684 -1.94376 3.60578
lowerneck -0.624188 -7.83052 -2.78045
upperneck 16.9403 -10.0637 3.13223
head 5.51837 -4.54334 0.947466
rclavicle -4.90998e-014 -5.76476e-014
rhumerus -35.8896 -15.0175 -79.6081
rradius 41.3738
rwrist 16.9571
rhand 4.17095 -54.7547
rfingers 7.12502
rthumb 29.5789 -82.4174
lclavicle -4.90998e-014 -5.76476e-014
lhumerus -25.5295 3.30843 81.7733
lradius 27.4376
lwrist 6.23476
lhand -34.1186 -11.7755
lfingers 7.12502
lthumb -7.29407 18.0787
rfemur -23.7742 3.87774 17.3744
rtibia 6.59206
rfoot -17.7534 -4.62529
rtoes -23.9739
lfemur -23.429 -7.89324 -25.5509
ltibia 7.42317
lfoot -7.20854 0.0541057
ltoes -23.7966
4
root -1.19289 17.9843 21.0532 -153.522 -1.53408 176.815
lowerback -24.0798 -3.60754 -8.6278
upperback 0.44052 -2.52627 -0.606886
thorax 14.456 -1.86894 3.29748
lowerneck -0.455646 -7.87288 -2.71208
upperneck 16.9738 -10.1214 3.20101
head 5.50229 -4.55747 0.961595
rclavicle -7.15625e-015 -3.81667e-014
rhumerus -36.2574 -15.4002 -79.4245
rradius 41.8749
rwrist 18.4562
rhand 10.0801 -53.5822
rfingers 7.12502
rthumb 35.2023 -80.0908
lclavicle -7.15625e-015 -3.81667e-014
lhumerus -26.3341 0.513077 83.1418
lradius 26.8155
lwrist -0.530526
lhand -43.822 -5.78514
lfingers 7.12502
lthumb -16.6498 23.5207
rfemur -24.8055 3.97561 17.8332
rtibia 6.96568
rfoot -17.8594 -4.69685
rtoes -24.4609
lfemur -24.4007 -7.97284 -24.8812
ltibia 7.6156
lfoot -7.16557 0.31012
ltoes -25.4451
5
root -1.19933 17.9844 21.0665 -152.807 -1.71523 177.493
lowerback -24.712 -3.35879 -7.72554
upperback 0.114601 -2.44859 -0.550194
thorax 14.3689 -1.77188 2.86587
lowerneck -0.0596948 -7.9307 -2.50993
upperneck 16.8949 -10.1939 3.23134
head 5.40429 -4.57574 0.953896
rclavicle -1.2921e-014 -3.61788e-014
rhumerus -36.7851 -15.4521 -79.4732
rradius 42.5292
rwrist 18.617
rhand 16.6848 -52.4975
rfingers 7.12502
rthumb 41.4351 -77.274
lclavicle -1.2921e-014 -3.61788e-014
lhumerus -26.4408 1.70252 82.6445
lradius 26.9519
lwrist -1.77634
lhand -43.7576 -4.93486
lfingers 7.12502
lthumb -16.5879 24.3762
rfemur -25.8962 4.04082 18.6032
rtibia 7.33178
rfoot -17.9125 -4.75024
rtoes -25.558
lfemur -25.4687 -8.02151 -23.8825
ltibia 7.86739
lfoot -7.16644 0.459979
ltoes -25.7614
6
root -1.20254 17.9957 21.0698 -152.599 -1.94696 178.254
lowerback -24.9601 -3.01764 -7.06762
upperback -0.042712 -2.20032 -0.402276
thorax 14.2683 -1.61638 2.75219
lowerneck 0.398594 -8.0872 -2.14589
upperneck 16.7409 -10.3895 3.17159
head 5.26319 -4.65216 0.891388
rclavicle -1.78906e-015 5.20816e-014
rhumerus -37.4284 -15.8173 -79.2069
rradius 43.5697
rwrist 19.0397
rhand 25.8193 -52.3042
rfingers 7.12502
rthumb 49.9122 -73.5729
lclavicle -1.78906e-015 5.20816e-014
lhumerus -25.6301 5.80396 81.8013
lradius 25.4598
lwrist -5.87651
lhand -23.7233 -11.4257
lfingers 7.12502
lthumb 2.74454 18.5364
rfemur -26.2083 4.25332 19.4906
rtibia 7.41376
rfoot -17.7967 -4.73571
rtoes -25.2948
lfemur -25.8446 -8.04496 -22.8143
ltibia 7.97072
lfoot -7.18393 0.439268
ltoes -24.6399
7
root -1.2052 17.9936 21.0678 -152.641 -1.99892 178.261
lowerback -24.6681 -2.99316 -7.06627
upperback -0.201143 -2.2137 -0.379814
thorax 13.9174 -1.61611 2.78474
lowerneck 0.36134 -8.00947 -2.31992
upperneck 17.0011 -10.2627 3.20672
head 5.35775 -4.58237 0.930757
rclavicle 0 1.07344e-014
rhumerus -37.9464 -15.8099 -78.8807
rradius 44.4759
rwrist 20.5716
rhand 30.2869 -51.0677
rfingers 7.12502
rthumb 53.9647 -69.9296
lclavicle 0 1.07344e-014
lhumerus -25.9643 5.02172 82.2136
lradius 25.3289
lwrist -3.05201
lhand -24.6855 -12.2413
lfingers 7.12502
lthumb 1.81535 17.7308
rfemur -26.1263 4.26136 19.4776
rtibia 7.3931
rfoot -17.7112 -4.61893
rtoes -23.5385
lfemur -25.7784 -8.05891 -22.8226
ltibia 7.93949
lfoot -7.11482 0.637604
ltoes -25.7787
8
root -1.20673 17.9931 21.0696 -152.674 -2.03656 178.291
lowerback -24.8157 -2.99889 -7.08836
upperback -0.0692212 -2.18954 -0.329363
thorax 14.1586 -1.61205 2.85781
lowerneck 0.207735 -7.94989 -2.48543
upperneck 16.9399 -10.2044 3.32372
head 5.37731 -4.56247 0.989352
rclavicle -2.32578e-014 -1.74931e-014
rhumerus -37.9347 -15.5059 -78.9474
rradius 45.3054
rwrist 20.5785
rhand 31.1814 -49.518
rfingers 7.12502
rthumb 54.7658 -67.8247
lclavicle -2.32578e-014 -1.74931e-014
lhumerus -25.7768 5.26887 82.2436
lradius 25.3853
lwrist -3.32032
lhand -24.0565 -10.4683
lfingers 7.12502
lthumb 2.42284 19.4977
rfemur -26.1293 4.26765 19.5048
rtibia 7.47135
rfoot -17.7123 -4.5954
rtoes -22.98
lfemur -25.7524 -8.03828 -22.7969
ltibia 7.94238
lfoot -7.17515 0.684719
ltoes -26.3976
9
root -1.19992 17.9948 21.0679 -152.803 -2.11474 178.333
lowerback -24.8332 -3.04692 -7.21583
upperback 0.032993 -2.20833 -0.245082
thorax 14.3027 -1.63416 3.01904
lowerneck 0.158161 -7.92327 -2.53969
upperneck 16.8674 -10.175 3.33526
head 5.3655 -4.55565 1.00164
rclavicle -8.94531e-015 -1.23246e-014
rhumerus -38.048 -15.2273 -78.9274
rradius 46.4243
rwrist 21.5392
rhand 34.9381 -48.8025
rfingers 7.12502
rthumb 58.0832 -64.449
lclavicle -8.94531e-015 -1.23246e-014
lhumerus -25.8241 5.24622 82.3456
lradius 25.6134
lwrist -2.91516
lhand -24.0752 -11.0596
lfingers 7.12502
lthumb 2.40476 18.9066
rfemur -25.9117 4.47121 19.553
rtibia 7.37749
rfoot -17.7171 -4.84998
rtoes -23.367
lfemur -25.5852 -7.98246 -22.712
ltibia 7.93686
lfoot -7.31119 0.511968
ltoes -26.4444
